<svg width="9" height="17" viewBox="0 0 9 17" fill="none" xmlns="http://www.w3.org/2000/svg">
<path d="M8.44444 3.1652H5.77778C5.54203 3.1652 5.31594 3.25885 5.14924 3.42555C4.98254 3.59225 4.88889 3.81834 4.88889 4.05409V6.72076H8.44444C8.49427 6.71965 8.54362 6.73053 8.58836 6.75248C8.6331 6.77442 8.67191 6.8068 8.70153 6.84687C8.73115 6.88694 8.75072 6.93355 8.75857 6.98276C8.76642 7.03197 8.76234 7.08234 8.74667 7.12965L8.08889 9.0852C8.05932 9.17276 8.00319 9.24892 7.92831 9.30309C7.85343 9.35726 7.76353 9.38674 7.67111 9.38742H4.88889V16.0541C4.88889 16.172 4.84206 16.285 4.75871 16.3684C4.67537 16.4517 4.56232 16.4985 4.44444 16.4985H2.22222C2.10435 16.4985 1.9913 16.4517 1.90795 16.3684C1.8246 16.285 1.77778 16.172 1.77778 16.0541V9.38742H0.444444C0.32657 9.38742 0.213524 9.3406 0.130175 9.25725C0.0468254 9.1739 0 9.06085 0 8.94298V7.1652C0 7.04733 0.0468254 6.93428 0.130175 6.85093C0.213524 6.76758 0.32657 6.72076 0.444444 6.72076H1.77778V4.05409C1.77778 3.1111 2.15238 2.20673 2.81918 1.53993C3.48597 0.873137 4.39034 0.498535 5.33333 0.498535H8.44444C8.56232 0.498535 8.67537 0.545361 8.75871 0.62871C8.84206 0.71206 8.88889 0.825106 8.88889 0.94298V2.72076C8.88889 2.83863 8.84206 2.95168 8.75871 3.03503C8.67537 3.11838 8.56232 3.1652 8.44444 3.1652Z" fill="#814226"/>
</svg>
