<svg width="18" height="18" viewBox="0 0 18 18" fill="none" xmlns="http://www.w3.org/2000/svg">
<path d="M4.5 7.00049V17.0005C4.5 17.1331 4.44732 17.2603 4.35355 17.354C4.25979 17.4478 4.13261 17.5005 4 17.5005H1.5C1.36739 17.5005 1.24022 17.4478 1.14645 17.354C1.05268 17.2603 1 17.1331 1 17.0005V7.00049C1 6.86788 1.05268 6.7407 1.14645 6.64693C1.24022 6.55317 1.36739 6.50049 1.5 6.50049H4C4.13261 6.50049 4.25979 6.55317 4.35355 6.64693C4.44732 6.7407 4.5 6.86788 4.5 7.00049ZM18 10.9105C18.0167 9.85959 17.6739 8.83452 17.0282 8.00518C16.3826 7.17584 15.4729 6.59202 14.45 6.35049C13.754 6.20062 13.0322 6.21955 12.345 6.4057C11.6578 6.59185 11.0252 6.93981 10.5 7.42049V7.00049C10.5 6.86788 10.4473 6.7407 10.3536 6.64693C10.2598 6.55317 10.1326 6.50049 10 6.50049H7.5C7.36739 6.50049 7.24022 6.55317 7.14645 6.64693C7.05268 6.7407 7 6.86788 7 7.00049V17.0005C7 17.1331 7.05268 17.2603 7.14645 17.354C7.24022 17.4478 7.36739 17.5005 7.5 17.5005H10C10.1326 17.5005 10.2598 17.4478 10.3536 17.354C10.4473 17.2603 10.5 17.1331 10.5 17.0005V11.3605C10.488 10.874 10.6479 10.3988 10.9515 10.0184C11.255 9.638 11.6829 9.37674 12.16 9.28049C12.4496 9.23049 12.7467 9.24494 13.0301 9.32281C13.3135 9.40067 13.5762 9.54004 13.7997 9.73099C14.0231 9.92195 14.2017 10.1598 14.3227 10.4276C14.4437 10.6954 14.5043 10.9866 14.5 11.2805V17.0005C14.5 17.1331 14.5527 17.2603 14.6464 17.354C14.7402 17.4478 14.8674 17.5005 15 17.5005H17.5C17.6326 17.5005 17.7598 17.4478 17.8536 17.354C17.9473 17.2603 18 17.1331 18 17.0005V10.9105ZM2.5 0.500488C2.10444 0.500488 1.71776 0.617786 1.38886 0.837549C1.05996 1.05731 0.803617 1.36967 0.652242 1.73512C0.500867 2.10057 0.46126 2.50271 0.53843 2.89067C0.615601 3.27863 0.806082 3.635 1.08579 3.9147C1.36549 4.19441 1.72186 4.38489 2.10982 4.46206C2.49778 4.53923 2.89992 4.49962 3.26537 4.34825C3.63082 4.19687 3.94318 3.94053 4.16294 3.61163C4.3827 3.28273 4.5 2.89605 4.5 2.50049C4.5 1.97006 4.28929 1.46135 3.91421 1.08627C3.53914 0.711202 3.03043 0.500488 2.5 0.500488Z" fill="#814226"/>
</svg>
