<svg width="21" height="18" viewBox="0 0 21 18" fill="none" xmlns="http://www.w3.org/2000/svg">
<path fill-rule="evenodd" clip-rule="evenodd" d="M20.0008 2.94859C19.484 3.63765 18.8593 4.23872 18.1508 4.72859C18.1508 4.90859 18.1508 5.08859 18.1508 5.27859C18.1536 6.89681 17.8345 8.49942 17.2119 9.9931C16.5894 11.4868 15.6759 12.8417 14.5247 13.9789C13.3735 15.1162 12.0076 16.0131 10.5064 16.6173C9.00524 17.2216 7.39886 17.5211 5.7808 17.4986C3.89123 17.5049 2.02585 17.0736 0.330796 16.2386C0.286077 16.2191 0.248046 16.1869 0.221392 16.146C0.194738 16.1052 0.180627 16.0574 0.180796 16.0086V15.8986C0.180796 15.8296 0.208189 15.7635 0.256949 15.7147C0.305708 15.666 0.37184 15.6386 0.440796 15.6386C2.2982 15.5774 4.08934 14.9337 5.5608 13.7986C4.737 13.782 3.93468 13.5329 3.24639 13.0799C2.55811 12.627 2.0119 11.9886 1.6708 11.2386C1.65351 11.1975 1.64708 11.1526 1.65214 11.1083C1.6572 11.064 1.67357 11.0217 1.69969 10.9856C1.7258 10.9494 1.76077 10.9206 1.80125 10.9018C1.84172 10.8831 1.88633 10.8751 1.9308 10.8786C2.44175 10.9299 2.95781 10.8824 3.4508 10.7386C2.54627 10.5509 1.72473 10.0808 1.10467 9.39603C0.484606 8.71127 0.0980648 7.84725 0.000796377 6.9286C-0.00269153 6.88413 0.00531672 6.83952 0.0240512 6.79905C0.0427858 6.75857 0.0716165 6.7236 0.107772 6.69748C0.143928 6.67137 0.186193 6.655 0.230505 6.64994C0.274817 6.64488 0.319685 6.6513 0.360796 6.66859C0.858843 6.88825 1.39648 7.00395 1.9408 7.00859C1.15002 6.48982 0.553342 5.72372 0.243975 4.82999C-0.065393 3.93627 -0.0700271 2.96524 0.230796 2.06859C0.262187 1.98052 0.31591 1.9021 0.386707 1.84102C0.457503 1.77994 0.542947 1.73829 0.634674 1.72014C0.726401 1.702 0.821267 1.70798 0.909987 1.73751C0.998706 1.76704 1.07824 1.8191 1.1408 1.88859C3.33528 4.22307 6.35053 5.61418 9.5508 5.7686C9.46882 5.44165 9.4285 5.10565 9.4308 4.7686C9.44543 3.90444 9.71657 3.06413 10.2098 2.35439C10.703 1.64465 11.396 1.09751 12.2008 0.782444C13.0056 0.467381 13.8859 0.398617 14.7298 0.584885C15.5738 0.771154 16.3434 1.20405 16.9408 1.82859C17.7737 1.67 18.5789 1.39037 19.3308 0.998595C19.3578 0.981748 19.389 0.972817 19.4208 0.972817C19.4526 0.972817 19.4838 0.981748 19.5108 0.998595C19.5276 1.02559 19.5366 1.05677 19.5366 1.08859C19.5366 1.12042 19.5276 1.1516 19.5108 1.17859C19.1466 2.0122 18.5313 2.71136 17.7508 3.17859C18.4343 3.09937 19.1058 2.93821 19.7508 2.69859C19.7773 2.68054 19.8087 2.67088 19.8408 2.67088C19.8729 2.67088 19.9043 2.68054 19.9308 2.69859C19.9533 2.70887 19.9732 2.72393 19.9893 2.74271C20.0054 2.7615 20.0171 2.78356 20.0238 2.80736C20.0305 2.83115 20.0319 2.85612 20.0279 2.88051C20.0239 2.90491 20.0147 2.92814 20.0008 2.94859Z" fill="#814226"/>
</svg>
