<svg width="279" height="190" viewBox="0 0 279 190" fill="none" xmlns="http://www.w3.org/2000/svg">
<circle cx="34" cy="5" r="5" fill="#CDA898"/>
<circle cx="34" cy="65" r="5" fill="#CDA898"/>
<circle cx="34" cy="125" r="5" fill="#CDA898"/>
<circle cx="34" cy="185" r="5" fill="#CDA898"/>
<circle cx="94" cy="5" r="5" fill="#CDA898"/>
<circle cx="94" cy="65" r="5" fill="#CDA898"/>
<circle cx="94" cy="125" r="5" fill="#CDA898"/>
<circle cx="94" cy="185" r="5" fill="#CDA898"/>
<circle cx="154" cy="5" r="5" fill="#CDA898"/>
<circle cx="154" cy="65" r="5" fill="#CDA898"/>
<circle cx="154" cy="125" r="5" fill="#CDA898"/>
<circle cx="154" cy="185" r="5" fill="#CDA898"/>
<circle cx="214" cy="5" r="5" fill="#CDA898"/>
<circle cx="214" cy="65" r="5" fill="#CDA898"/>
<circle cx="214" cy="125" r="5" fill="#CDA898"/>
<circle cx="214" cy="185" r="5" fill="#CDA898"/>
<circle cx="274" cy="5" r="5" fill="#CDA898"/>
<circle cx="274" cy="65" r="5" fill="#CDA898"/>
<circle cx="274" cy="125" r="5" fill="#CDA898"/>
<circle cx="274" cy="185" r="5" fill="#CDA898"/>
</svg>
