<svg width="20" height="20" viewBox="0 0 20 20" fill="none" xmlns="http://www.w3.org/2000/svg">
<mask id="mask0_744_2236" style="mask-type:alpha" maskUnits="userSpaceOnUse" x="0" y="0" width="20" height="20">
<rect width="20" height="20" fill="#D9D9D9"/>
</mask>
<g mask="url(#mask0_744_2236)">
<path d="M10 11.668C9.76389 11.668 9.56611 11.588 9.40667 11.428C9.24667 11.2685 9.16667 11.0707 9.16667 10.8346C9.16667 10.5985 9.24667 10.4005 9.40667 10.2405C9.56611 10.081 9.76389 10.0013 10 10.0013C10.2361 10.0013 10.4342 10.081 10.5942 10.2405C10.7536 10.4005 10.8333 10.5985 10.8333 10.8346C10.8333 11.0707 10.7536 11.2685 10.5942 11.428C10.4342 11.588 10.2361 11.668 10 11.668ZM6.66667 11.668C6.43056 11.668 6.2325 11.588 6.0725 11.428C5.91306 11.2685 5.83333 11.0707 5.83333 10.8346C5.83333 10.5985 5.91306 10.4005 6.0725 10.2405C6.2325 10.081 6.43056 10.0013 6.66667 10.0013C6.90278 10.0013 7.10083 10.081 7.26083 10.2405C7.42028 10.4005 7.5 10.5985 7.5 10.8346C7.5 11.0707 7.42028 11.2685 7.26083 11.428C7.10083 11.588 6.90278 11.668 6.66667 11.668ZM13.3333 11.668C13.0972 11.668 12.8994 11.588 12.74 11.428C12.58 11.2685 12.5 11.0707 12.5 10.8346C12.5 10.5985 12.58 10.4005 12.74 10.2405C12.8994 10.081 13.0972 10.0013 13.3333 10.0013C13.5694 10.0013 13.7672 10.081 13.9267 10.2405C14.0867 10.4005 14.1667 10.5985 14.1667 10.8346C14.1667 11.0707 14.0867 11.2685 13.9267 11.428C13.7672 11.588 13.5694 11.668 13.3333 11.668ZM10 15.0013C9.76389 15.0013 9.56611 14.9213 9.40667 14.7613C9.24667 14.6019 9.16667 14.4041 9.16667 14.168C9.16667 13.9319 9.24667 13.7341 9.40667 13.5746C9.56611 13.4146 9.76389 13.3346 10 13.3346C10.2361 13.3346 10.4342 13.4146 10.5942 13.5746C10.7536 13.7341 10.8333 13.9319 10.8333 14.168C10.8333 14.4041 10.7536 14.6019 10.5942 14.7613C10.4342 14.9213 10.2361 15.0013 10 15.0013ZM6.66667 15.0013C6.43056 15.0013 6.2325 14.9213 6.0725 14.7613C5.91306 14.6019 5.83333 14.4041 5.83333 14.168C5.83333 13.9319 5.91306 13.7341 6.0725 13.5746C6.2325 13.4146 6.43056 13.3346 6.66667 13.3346C6.90278 13.3346 7.10083 13.4146 7.26083 13.5746C7.42028 13.7341 7.5 13.9319 7.5 14.168C7.5 14.4041 7.42028 14.6019 7.26083 14.7613C7.10083 14.9213 6.90278 15.0013 6.66667 15.0013ZM13.3333 15.0013C13.0972 15.0013 12.8994 14.9213 12.74 14.7613C12.58 14.6019 12.5 14.4041 12.5 14.168C12.5 13.9319 12.58 13.7341 12.74 13.5746C12.8994 13.4146 13.0972 13.3346 13.3333 13.3346C13.5694 13.3346 13.7672 13.4146 13.9267 13.5746C14.0867 13.7341 14.1667 13.9319 14.1667 14.168C14.1667 14.4041 14.0867 14.6019 13.9267 14.7613C13.7672 14.9213 13.5694 15.0013 13.3333 15.0013ZM4.16667 18.3346C3.70833 18.3346 3.31583 18.1716 2.98917 17.8455C2.66306 17.5188 2.5 17.1263 2.5 16.668V5.0013C2.5 4.54297 2.66306 4.15075 2.98917 3.82463C3.31583 3.49797 3.70833 3.33464 4.16667 3.33464H5V1.66797H6.66667V3.33464H13.3333V1.66797H15V3.33464H15.8333C16.2917 3.33464 16.6842 3.49797 17.0108 3.82463C17.3369 4.15075 17.5 4.54297 17.5 5.0013V16.668C17.5 17.1263 17.3369 17.5188 17.0108 17.8455C16.6842 18.1716 16.2917 18.3346 15.8333 18.3346H4.16667ZM4.16667 16.668H15.8333V8.33463H4.16667V16.668ZM4.16667 6.66797H15.8333V5.0013H4.16667V6.66797Z" fill="#84736C"/>
</g>
</svg>
