<svg width="20" height="20" viewBox="0 0 20 20" fill="none" xmlns="http://www.w3.org/2000/svg">
<mask id="mask0_744_2241" style="mask-type:alpha" maskUnits="userSpaceOnUse" x="0" y="0" width="20" height="20">
<rect width="20" height="20" fill="#D9D9D9"/>
</mask>
<g mask="url(#mask0_744_2241)">
<path d="M10.0013 13.7305C11.3763 12.6194 12.4146 11.5499 13.1163 10.5221C13.8174 9.49436 14.168 8.52908 14.168 7.6263C14.168 6.84852 14.0257 6.18519 13.7413 5.6363C13.4563 5.08797 13.1055 4.64352 12.6888 4.30297C12.2721 3.96297 11.8207 3.71658 11.3346 3.5638C10.8485 3.41102 10.4041 3.33464 10.0013 3.33464C9.59853 3.33464 9.15408 3.41102 8.66797 3.5638C8.18186 3.71658 7.73047 3.96297 7.3138 4.30297C6.89714 4.64352 6.54658 5.08797 6.26214 5.6363C5.97714 6.18519 5.83464 6.84852 5.83464 7.6263C5.83464 8.52908 6.18519 9.49436 6.8863 10.5221C7.58797 11.5499 8.6263 12.6194 10.0013 13.7305ZM10.0013 15.8346C8.04297 14.3902 6.58102 12.9874 5.61547 11.6263C4.65047 10.2652 4.16797 8.93186 4.16797 7.6263C4.16797 6.64019 4.34519 5.77547 4.69964 5.03214C5.05352 4.28936 5.50825 3.66797 6.0638 3.16797C6.61936 2.66797 7.24436 2.29297 7.9388 2.04297C8.63325 1.79297 9.32075 1.66797 10.0013 1.66797C10.6819 1.66797 11.3694 1.79297 12.0638 2.04297C12.7582 2.29297 13.3832 2.66797 13.9388 3.16797C14.4944 3.66797 14.9494 4.28936 15.3038 5.03214C15.6577 5.77547 15.8346 6.64019 15.8346 7.6263C15.8346 8.93186 15.3519 10.2652 14.3863 11.6263C13.4213 12.9874 11.9596 14.3902 10.0013 15.8346ZM10.0013 9.16797C10.4596 9.16797 10.8521 9.00463 11.1788 8.67797C11.5049 8.35186 11.668 7.95963 11.668 7.5013C11.668 7.04297 11.5049 6.65047 11.1788 6.3238C10.8521 5.99769 10.4596 5.83463 10.0013 5.83463C9.54297 5.83463 9.15075 5.99769 8.82464 6.3238C8.49797 6.65047 8.33464 7.04297 8.33464 7.5013C8.33464 7.95963 8.49797 8.35186 8.82464 8.67797C9.15075 9.00463 9.54297 9.16797 10.0013 9.16797ZM4.16797 18.3346V16.668H15.8346V18.3346H4.16797Z" fill="#84736C"/>
</g>
</svg>
