<svg width="114" height="94" viewBox="0 0 114 94" fill="none" xmlns="http://www.w3.org/2000/svg">
<g opacity="0.2">
<ellipse cx="19.5033" cy="3.16656" rx="2.5" ry="2.62469" transform="rotate(14.4844 19.5033 3.16656)" fill="#814226"/>
<ellipse cx="8.55215" cy="45.5591" rx="2.5" ry="2.62469" transform="rotate(14.4844 8.55215 45.5591)" fill="#814226"/>
<ellipse cx="55.7045" cy="12.5181" rx="2.5" ry="2.62469" transform="rotate(14.4844 55.7045 12.5181)" fill="#814226"/>
<ellipse cx="44.7533" cy="54.9107" rx="2.5" ry="2.62469" transform="rotate(14.4844 44.7533 54.9107)" fill="#814226"/>
<ellipse cx="91.9066" cy="21.8697" rx="2.5" ry="2.62469" transform="rotate(14.4844 91.9066 21.8697)" fill="#814226"/>
<ellipse cx="80.9555" cy="64.2632" rx="2.5" ry="2.62469" transform="rotate(14.4844 80.9555 64.2632)" fill="#814226"/>
<ellipse cx="14.0277" cy="24.3628" rx="2.5" ry="2.62469" transform="rotate(14.4844 14.0277 24.3628)" fill="#814226"/>
<ellipse cx="3.07656" cy="66.7554" rx="2.5" ry="2.62469" transform="rotate(14.4844 3.07656 66.7554)" fill="#814226"/>
<ellipse cx="50.2289" cy="33.7154" rx="2.5" ry="2.62469" transform="rotate(14.4844 50.2289 33.7154)" fill="#814226"/>
<ellipse cx="39.2777" cy="76.107" rx="2.5" ry="2.62469" transform="rotate(14.4844 39.2777 76.107)" fill="#814226"/>
<ellipse cx="86.4311" cy="43.0669" rx="2.5" ry="2.62469" transform="rotate(14.4844 86.4311 43.0669)" fill="#814226"/>
<ellipse cx="75.4799" cy="85.4595" rx="2.5" ry="2.62469" transform="rotate(14.4844 75.4799 85.4595)" fill="#814226"/>
<ellipse cx="37.6039" cy="7.84234" rx="2.5" ry="2.62469" transform="rotate(14.4844 37.6039 7.84234)" fill="#814226"/>
<ellipse cx="26.6527" cy="50.2349" rx="2.5" ry="2.62469" transform="rotate(14.4844 26.6527 50.2349)" fill="#814226"/>
<ellipse cx="73.8061" cy="17.1939" rx="2.5" ry="2.62469" transform="rotate(14.4844 73.8061 17.1939)" fill="#814226"/>
<ellipse cx="62.8549" cy="59.5865" rx="2.5" ry="2.62469" transform="rotate(14.4844 62.8549 59.5865)" fill="#814226"/>
<ellipse cx="110.007" cy="26.5464" rx="2.5" ry="2.62469" transform="rotate(14.4844 110.007 26.5464)" fill="#814226"/>
<ellipse cx="99.0561" cy="68.939" rx="2.5" ry="2.62469" transform="rotate(14.4844 99.0561 68.939)" fill="#814226"/>
<ellipse cx="32.1283" cy="29.0386" rx="2.5" ry="2.62469" transform="rotate(14.4844 32.1283 29.0386)" fill="#814226"/>
<ellipse cx="21.1771" cy="71.4312" rx="2.5" ry="2.62469" transform="rotate(14.4844 21.1771 71.4312)" fill="#814226"/>
<ellipse cx="68.3305" cy="38.3912" rx="2.5" ry="2.62469" transform="rotate(14.4844 68.3305 38.3912)" fill="#814226"/>
<ellipse cx="57.3793" cy="80.7837" rx="2.5" ry="2.62469" transform="rotate(14.4844 57.3793 80.7837)" fill="#814226"/>
<ellipse cx="104.532" cy="47.7427" rx="2.5" ry="2.62469" transform="rotate(14.4844 104.532 47.7427)" fill="#814226"/>
<ellipse cx="93.5805" cy="90.1353" rx="2.5" ry="2.62469" transform="rotate(14.4844 93.5805 90.1353)" fill="#814226"/>
</g>
</svg>
